<mxfile host="app.diagrams.net" modified="2021-07-01T22:19:15.656Z" agent="5.0 (Windows NT 10.0; Win64; x64) AppleWebKit/537.36 (KHTML, like Gecko) Chrome/91.0.4472.114 Safari/537.36" etag="BPENNQ8x8zbEz0U144yr" version="14.8.3" type="github">
  <diagram id="m5h23SE2QngvoO2l0Zhb" name="Page-1">
    <mxGraphModel dx="1662" dy="762" grid="1" gridSize="10" guides="1" tooltips="1" connect="1" arrows="1" fold="1" page="1" pageScale="1" pageWidth="850" pageHeight="1100" math="0" shadow="0">
      <root>
        <mxCell id="0" />
        <mxCell id="1" parent="0" />
        <mxCell id="RA-UjEdS_4v1RoJET48J-29" value="&lt;font size=&quot;3&quot;&gt;Update Request Language Flow (version 2)&lt;/font&gt;" style="text;html=1;strokeColor=none;fillColor=none;align=center;verticalAlign=middle;whiteSpace=wrap;rounded=0;" vertex="1" parent="1">
          <mxGeometry x="240" y="40" width="340" height="20" as="geometry" />
        </mxCell>
        <mxCell id="RA-UjEdS_4v1RoJET48J-54" value="" style="rounded=1;whiteSpace=wrap;html=1;" vertex="1" parent="1">
          <mxGeometry x="290" y="100" width="220" height="40" as="geometry" />
        </mxCell>
        <mxCell id="RA-UjEdS_4v1RoJET48J-56" value="Language Changed Event" style="text;html=1;strokeColor=none;fillColor=none;align=center;verticalAlign=middle;whiteSpace=wrap;rounded=0;" vertex="1" parent="1">
          <mxGeometry x="310" y="110" width="180" height="20" as="geometry" />
        </mxCell>
        <mxCell id="RA-UjEdS_4v1RoJET48J-63" style="edgeStyle=orthogonalEdgeStyle;rounded=0;orthogonalLoop=1;jettySize=auto;html=1;exitX=0.5;exitY=0;exitDx=0;exitDy=0;entryX=0.25;entryY=1;entryDx=0;entryDy=0;" edge="1" parent="1" source="RA-UjEdS_4v1RoJET48J-57" target="RA-UjEdS_4v1RoJET48J-54">
          <mxGeometry relative="1" as="geometry" />
        </mxCell>
        <mxCell id="RA-UjEdS_4v1RoJET48J-78" style="edgeStyle=orthogonalEdgeStyle;rounded=0;orthogonalLoop=1;jettySize=auto;html=1;exitX=0.5;exitY=1;exitDx=0;exitDy=0;" edge="1" parent="1" source="RA-UjEdS_4v1RoJET48J-57" target="RA-UjEdS_4v1RoJET48J-66">
          <mxGeometry relative="1" as="geometry">
            <Array as="points">
              <mxPoint x="190" y="430" />
            </Array>
          </mxGeometry>
        </mxCell>
        <mxCell id="RA-UjEdS_4v1RoJET48J-57" value="" style="whiteSpace=wrap;html=1;aspect=fixed;" vertex="1" parent="1">
          <mxGeometry x="150" y="210" width="80" height="80" as="geometry" />
        </mxCell>
        <mxCell id="RA-UjEdS_4v1RoJET48J-64" style="edgeStyle=orthogonalEdgeStyle;rounded=0;orthogonalLoop=1;jettySize=auto;html=1;exitX=0.5;exitY=0;exitDx=0;exitDy=0;entryX=0.5;entryY=1;entryDx=0;entryDy=0;" edge="1" parent="1" source="RA-UjEdS_4v1RoJET48J-58" target="RA-UjEdS_4v1RoJET48J-54">
          <mxGeometry relative="1" as="geometry" />
        </mxCell>
        <mxCell id="RA-UjEdS_4v1RoJET48J-79" style="edgeStyle=orthogonalEdgeStyle;rounded=0;orthogonalLoop=1;jettySize=auto;html=1;exitX=0.5;exitY=1;exitDx=0;exitDy=0;" edge="1" parent="1" source="RA-UjEdS_4v1RoJET48J-58">
          <mxGeometry relative="1" as="geometry">
            <mxPoint x="190" y="310" as="targetPoint" />
            <Array as="points">
              <mxPoint x="400" y="310" />
            </Array>
          </mxGeometry>
        </mxCell>
        <mxCell id="RA-UjEdS_4v1RoJET48J-58" value="" style="whiteSpace=wrap;html=1;aspect=fixed;" vertex="1" parent="1">
          <mxGeometry x="360" y="210" width="80" height="80" as="geometry" />
        </mxCell>
        <mxCell id="RA-UjEdS_4v1RoJET48J-65" style="edgeStyle=orthogonalEdgeStyle;rounded=0;orthogonalLoop=1;jettySize=auto;html=1;exitX=0.5;exitY=0;exitDx=0;exitDy=0;entryX=0.75;entryY=1;entryDx=0;entryDy=0;" edge="1" parent="1" source="RA-UjEdS_4v1RoJET48J-59" target="RA-UjEdS_4v1RoJET48J-54">
          <mxGeometry relative="1" as="geometry" />
        </mxCell>
        <mxCell id="RA-UjEdS_4v1RoJET48J-80" style="edgeStyle=orthogonalEdgeStyle;rounded=0;orthogonalLoop=1;jettySize=auto;html=1;exitX=0.5;exitY=1;exitDx=0;exitDy=0;" edge="1" parent="1" source="RA-UjEdS_4v1RoJET48J-59">
          <mxGeometry relative="1" as="geometry">
            <mxPoint x="190" y="330" as="targetPoint" />
            <Array as="points">
              <mxPoint x="620" y="330" />
            </Array>
          </mxGeometry>
        </mxCell>
        <mxCell id="RA-UjEdS_4v1RoJET48J-59" value="" style="whiteSpace=wrap;html=1;aspect=fixed;" vertex="1" parent="1">
          <mxGeometry x="580" y="210" width="80" height="80" as="geometry" />
        </mxCell>
        <mxCell id="RA-UjEdS_4v1RoJET48J-60" value="Charges Request Language Component" style="text;html=1;strokeColor=none;fillColor=none;align=center;verticalAlign=middle;whiteSpace=wrap;rounded=0;" vertex="1" parent="1">
          <mxGeometry x="160" y="240" width="60" height="20" as="geometry" />
        </mxCell>
        <mxCell id="RA-UjEdS_4v1RoJET48J-61" value="Orders Request Language Component" style="text;html=1;strokeColor=none;fillColor=none;align=center;verticalAlign=middle;whiteSpace=wrap;rounded=0;" vertex="1" parent="1">
          <mxGeometry x="370" y="240" width="60" height="20" as="geometry" />
        </mxCell>
        <mxCell id="RA-UjEdS_4v1RoJET48J-62" value="Products Request Language Components" style="text;html=1;strokeColor=none;fillColor=none;align=center;verticalAlign=middle;whiteSpace=wrap;rounded=0;" vertex="1" parent="1">
          <mxGeometry x="590" y="240" width="60" height="20" as="geometry" />
        </mxCell>
        <mxCell id="RA-UjEdS_4v1RoJET48J-66" value="Browser" style="shape=umlLifeline;perimeter=lifelinePerimeter;container=1;collapsible=0;recursiveResize=0;rounded=0;shadow=0;strokeWidth=1;" vertex="1" parent="1">
          <mxGeometry x="210" y="360" width="100" height="260" as="geometry" />
        </mxCell>
        <mxCell id="RA-UjEdS_4v1RoJET48J-72" style="edgeStyle=orthogonalEdgeStyle;rounded=0;orthogonalLoop=1;jettySize=auto;html=1;exitX=0.5;exitY=1;exitDx=0;exitDy=0;" edge="1" parent="1">
          <mxGeometry relative="1" as="geometry">
            <mxPoint x="428.5" y="640" as="sourcePoint" />
            <mxPoint x="428.5" y="640" as="targetPoint" />
          </mxGeometry>
        </mxCell>
        <mxCell id="RA-UjEdS_4v1RoJET48J-75" value="API Docs App" style="shape=umlLifeline;perimeter=lifelinePerimeter;container=1;collapsible=0;recursiveResize=0;rounded=0;shadow=0;strokeWidth=1;" vertex="1" parent="1">
          <mxGeometry x="450" y="360" width="100" height="260" as="geometry" />
        </mxCell>
        <mxCell id="RA-UjEdS_4v1RoJET48J-76" value="" style="shape=cylinder3;whiteSpace=wrap;html=1;boundedLbl=1;backgroundOutline=1;size=15;" vertex="1" parent="1">
          <mxGeometry x="690" y="400" width="60" height="230" as="geometry" />
        </mxCell>
        <mxCell id="RA-UjEdS_4v1RoJET48J-77" value="DB" style="text;html=1;strokeColor=none;fillColor=none;align=center;verticalAlign=middle;whiteSpace=wrap;rounded=0;" vertex="1" parent="1">
          <mxGeometry x="700" y="505" width="40" height="20" as="geometry" />
        </mxCell>
        <mxCell id="RA-UjEdS_4v1RoJET48J-81" value="" style="endArrow=classic;html=1;entryX=0.5;entryY=0.346;entryDx=0;entryDy=0;entryPerimeter=0;" edge="1" parent="1" target="RA-UjEdS_4v1RoJET48J-75">
          <mxGeometry relative="1" as="geometry">
            <mxPoint x="260" y="450" as="sourcePoint" />
            <mxPoint x="360" y="450" as="targetPoint" />
          </mxGeometry>
        </mxCell>
        <mxCell id="RA-UjEdS_4v1RoJET48J-82" value="get /api/request-language?language=curl&lt;br&gt;&amp;amp;routeId=get/charges" style="edgeLabel;resizable=0;html=1;align=center;verticalAlign=middle;" connectable="0" vertex="1" parent="RA-UjEdS_4v1RoJET48J-81">
          <mxGeometry relative="1" as="geometry" />
        </mxCell>
        <mxCell id="RA-UjEdS_4v1RoJET48J-83" value="" style="endArrow=classic;html=1;entryX=0.5;entryY=0.346;entryDx=0;entryDy=0;entryPerimeter=0;" edge="1" parent="1">
          <mxGeometry relative="1" as="geometry">
            <mxPoint x="260" y="500.04" as="sourcePoint" />
            <mxPoint x="500" y="500.00000000000006" as="targetPoint" />
          </mxGeometry>
        </mxCell>
        <mxCell id="RA-UjEdS_4v1RoJET48J-84" value="get /api/request-language?language=curl&lt;br&gt;&amp;amp;routeId=get/orders" style="edgeLabel;resizable=0;html=1;align=center;verticalAlign=middle;" connectable="0" vertex="1" parent="RA-UjEdS_4v1RoJET48J-83">
          <mxGeometry relative="1" as="geometry" />
        </mxCell>
        <mxCell id="RA-UjEdS_4v1RoJET48J-85" value="" style="endArrow=classic;html=1;entryX=0.5;entryY=0.346;entryDx=0;entryDy=0;entryPerimeter=0;" edge="1" parent="1">
          <mxGeometry relative="1" as="geometry">
            <mxPoint x="260" y="560.04" as="sourcePoint" />
            <mxPoint x="500" y="560" as="targetPoint" />
          </mxGeometry>
        </mxCell>
        <mxCell id="RA-UjEdS_4v1RoJET48J-86" value="get /api/request-language?language=curl&lt;br&gt;&amp;amp;routeId=get/products" style="edgeLabel;resizable=0;html=1;align=center;verticalAlign=middle;" connectable="0" vertex="1" parent="RA-UjEdS_4v1RoJET48J-85">
          <mxGeometry relative="1" as="geometry" />
        </mxCell>
        <mxCell id="RA-UjEdS_4v1RoJET48J-87" value="" style="endArrow=classic;html=1;entryX=0.5;entryY=0.346;entryDx=0;entryDy=0;entryPerimeter=0;" edge="1" parent="1">
          <mxGeometry relative="1" as="geometry">
            <mxPoint x="500" y="465.00000000000006" as="sourcePoint" />
            <mxPoint x="260" y="465.04" as="targetPoint" />
          </mxGeometry>
        </mxCell>
        <mxCell id="RA-UjEdS_4v1RoJET48J-89" value="" style="endArrow=classic;html=1;entryX=0.5;entryY=0.346;entryDx=0;entryDy=0;entryPerimeter=0;" edge="1" parent="1">
          <mxGeometry relative="1" as="geometry">
            <mxPoint x="500" y="520" as="sourcePoint" />
            <mxPoint x="260" y="520.04" as="targetPoint" />
          </mxGeometry>
        </mxCell>
        <mxCell id="RA-UjEdS_4v1RoJET48J-90" value="" style="endArrow=classic;html=1;entryX=0.5;entryY=0.346;entryDx=0;entryDy=0;entryPerimeter=0;" edge="1" parent="1">
          <mxGeometry relative="1" as="geometry">
            <mxPoint x="500" y="580" as="sourcePoint" />
            <mxPoint x="260" y="580.04" as="targetPoint" />
          </mxGeometry>
        </mxCell>
        <mxCell id="RA-UjEdS_4v1RoJET48J-91" value="" style="endArrow=classic;html=1;" edge="1" parent="1" source="RA-UjEdS_4v1RoJET48J-75">
          <mxGeometry width="50" height="50" relative="1" as="geometry">
            <mxPoint x="530" y="450" as="sourcePoint" />
            <mxPoint x="688" y="449" as="targetPoint" />
          </mxGeometry>
        </mxCell>
        <mxCell id="RA-UjEdS_4v1RoJET48J-92" value="" style="endArrow=classic;html=1;entryX=-0.033;entryY=0.213;entryDx=0;entryDy=0;entryPerimeter=0;" edge="1" parent="1">
          <mxGeometry width="50" height="50" relative="1" as="geometry">
            <mxPoint x="501.48" y="505" as="sourcePoint" />
            <mxPoint x="690" y="505" as="targetPoint" />
          </mxGeometry>
        </mxCell>
        <mxCell id="RA-UjEdS_4v1RoJET48J-93" value="" style="endArrow=classic;html=1;entryX=-0.033;entryY=0.213;entryDx=0;entryDy=0;entryPerimeter=0;" edge="1" parent="1">
          <mxGeometry width="50" height="50" relative="1" as="geometry">
            <mxPoint x="501.48" y="560" as="sourcePoint" />
            <mxPoint x="690" y="560" as="targetPoint" />
          </mxGeometry>
        </mxCell>
        <mxCell id="RA-UjEdS_4v1RoJET48J-94" value="" style="endArrow=classic;html=1;" edge="1" parent="1">
          <mxGeometry width="50" height="50" relative="1" as="geometry">
            <mxPoint x="690" y="460" as="sourcePoint" />
            <mxPoint x="500" y="460" as="targetPoint" />
          </mxGeometry>
        </mxCell>
        <mxCell id="RA-UjEdS_4v1RoJET48J-95" value="" style="endArrow=classic;html=1;" edge="1" parent="1">
          <mxGeometry width="50" height="50" relative="1" as="geometry">
            <mxPoint x="690" y="570" as="sourcePoint" />
            <mxPoint x="500" y="570" as="targetPoint" />
          </mxGeometry>
        </mxCell>
        <mxCell id="RA-UjEdS_4v1RoJET48J-96" value="" style="endArrow=classic;html=1;" edge="1" parent="1">
          <mxGeometry width="50" height="50" relative="1" as="geometry">
            <mxPoint x="690" y="514.5" as="sourcePoint" />
            <mxPoint x="500" y="514.5" as="targetPoint" />
          </mxGeometry>
        </mxCell>
        <mxCell id="RA-UjEdS_4v1RoJET48J-99" value="&lt;font style=&quot;font-size: 9px&quot;&gt;set session: language&lt;/font&gt;" style="text;html=1;strokeColor=none;fillColor=none;align=center;verticalAlign=middle;whiteSpace=wrap;rounded=0;" vertex="1" parent="1">
          <mxGeometry x="310" y="470" width="140" height="10" as="geometry" />
        </mxCell>
        <mxCell id="RA-UjEdS_4v1RoJET48J-101" value="&lt;font style=&quot;font-size: 9px&quot;&gt;set session: language&lt;/font&gt;" style="text;html=1;strokeColor=none;fillColor=none;align=center;verticalAlign=middle;whiteSpace=wrap;rounded=0;" vertex="1" parent="1">
          <mxGeometry x="310" y="525" width="140" height="10" as="geometry" />
        </mxCell>
        <mxCell id="RA-UjEdS_4v1RoJET48J-102" value="&lt;font style=&quot;font-size: 9px&quot;&gt;set session: language&lt;/font&gt;" style="text;html=1;strokeColor=none;fillColor=none;align=center;verticalAlign=middle;whiteSpace=wrap;rounded=0;" vertex="1" parent="1">
          <mxGeometry x="310" y="580" width="140" height="10" as="geometry" />
        </mxCell>
      </root>
    </mxGraphModel>
  </diagram>
</mxfile>
